<?xml version="1.0" standalone="no"?>
<svg xmlns="http://www.w3.org/2000/svg" viewBox="0 0 120.51171875 53" width="120.51171875" height="53"><rect fill="none" stroke="#ffe101" stroke-width="3" width="117.51171875" height="50" x="1.5" y="1.5"></rect><g fill="#2a39dc" color="#2a39dc" transform="translate(12, 12) scale(0.4142858)"><svg width="70.0" height="70.0" x="0.0" y="0.0" viewBox="0 0 70 70"><path d="M64.4100342,34.2999878c-1.6199951,0-2.9800415,1.0900269-3.4200439,2.5800171h-9.1799927v-4.3900146h6.9700317  c0.5499878,0,1-0.4500122,1-1v-9.8399658c1.4899902-0.4400024,2.5799561-1.8000488,2.5799561-3.4200439  c0-1.9799805-1.5999756-3.5899658-3.5799561-3.5899658c-1.9800415,0-3.5800171,1.6099854-3.5800171,3.5899658  c0,1.6199951,1.0900269,2.9800415,2.5800171,3.4200439v8.8399658h-5.9700317v-0.4199829  c0-1.6500244-1.3499756-2.9899902-3-2.9899902h-2.5899658v-6.9800415c0-6.1900024-5.0300293-11.2199707-11.2200317-11.2199707  s-11.2299805,5.0299683-11.2299805,11.2199707v6.9800415h-2.5900269c-1.6499634,0-3,1.3399658-3,2.9899902v0.4199829H12.210022  v-8.8399658c1.4899902-0.4400024,2.5800171-1.8000488,2.5800171-3.4200439c0-1.9799805-1.6000366-3.5899658-3.5800171-3.5899658  c-1.9700317,0-3.5800171,1.6099854-3.5800171,3.5899658c0,1.6199951,1.0900269,2.9800415,2.5800171,3.4200439v9.8399658  c0,0.5499878,0.4500122,1,1,1h6.9699707v4.3900146H9c-0.4400024-1.4899902-1.7999878-2.5800171-3.4199829-2.5800171  C3.6000366,34.2999878,2,35.9099731,2,37.8800049c0,1.9799805,1.6000366,3.5800171,3.5800171,3.5800171  c1.6199951,0,2.9799805-1.0900269,3.4199829-2.5800171h9.1799927v4.3900146H11.210022c-0.5499878,0-1,0.4499512-1,1v9.8399658  c-1.4899902,0.4400024-2.5800171,1.7999878-2.5800171,3.4199829c0,1.9800415,1.6099854,3.5900269,3.5800171,3.5900269  c1.9799805,0,3.5800171-1.6099854,3.5800171-3.5900269c0-1.6199951-1.0900269-2.9799805-2.5800171-3.4199829v-8.8399658h5.9699707  v0.4199829c0,1.6499634,1.3500366,2.9899902,3,2.9899902h27.6300049c1.6500244,0,3-1.3400269,3-2.9899902v-0.4199829h5.9700317  v8.8399658c-1.4899902,0.4400024-2.5800171,1.7999878-2.5800171,3.4199829c0,1.9800415,1.5999756,3.5900269,3.5800171,3.5900269  c1.9799805,0,3.5799561-1.6099854,3.5799561-3.5900269c0-1.6199951-1.0899658-2.9799805-2.5799561-3.4199829v-9.8399658  c0-0.5500488-0.4500122-1-1-1h-6.9700317v-4.3900146h9.1799927c0.4400024,1.4899902,1.8000488,2.5800171,3.4200439,2.5800171  C66.3900146,41.460022,68,39.8599854,68,37.8800049C68,35.9099731,66.3900146,34.2999878,64.4100342,34.2999878z M36,39.0100098  v1.8399658c0,0.5599976-0.4500122,1-1,1c-0.5599976,0-1-0.4400024-1-1v-1.8399658  c-0.9699707-0.3900146-1.6599731-1.3400269-1.6599731-2.4500122c0-1.460022,1.1900024-2.6500244,2.6599731-2.6500244  c1.460022,0,2.6500244,1.1900024,2.6500244,2.6500244C37.6500244,37.6699829,36.960022,38.6199951,36,39.0100098z   M44.2200317,27.0800171H25.7700195v-6.9800415c0-5.0799561,4.1400146-9.2199707,9.2299805-9.2199707  c5.0800171,0,9.2200317,4.1400146,9.2200317,9.2199707V27.0800171z"></path></svg></g><line x1="51.5" y1="0" x2="51.5" y2="100%" stroke="#ffe101" stroke-width="3"></line><path fill="#2a39dc" fill-rule="nonzero" d="M9.93 1.16L9.93 1.16L9.70 4.61L9.62 4.63Q8.75 3.33 6.67 2.94L6.67 2.94Q6.01 2.81 5.41 2.81Q4.80 2.81 4.38 2.92Q3.95 3.02 3.64 3.22L3.64 3.22Q3 3.64 3 4.32L3 4.32Q3 5.21 3.56 5.66L3.56 5.66Q4.27 6.20 5.89 6.42Q7.52 6.63 8.51 7.01Q9.49 7.38 10.13 7.96L10.13 7.96Q11.32 9.04 11.32 11.00L11.32 11.00Q11.32 13.58 9.38 14.98L9.38 14.98Q7.71 16.17 5.18 16.17L5.18 16.17Q3.14 16.17 1.15 15.40L1.15 15.40Q0.49 15.14 0 14.80L0 14.80L0.13 10.89L0.18 10.85Q1.63 13.36 4.95 13.36L4.95 13.36Q7.30 13.36 8.06 12.22L8.06 12.22Q8.32 11.84 8.32 11.36Q8.32 10.89 8.17 10.58Q8.02 10.27 7.66 10.04L7.66 10.04Q6.98 9.60 5.38 9.45Q3.77 9.29 2.75 8.87Q1.73 8.45 1.13 7.83L1.13 7.83Q0.02 6.70 0.02 4.69L0.02 4.69Q0.02 2.60 1.49 1.31L1.49 1.31Q2.98 0 5.50 0Q8.03 0 9.93 1.16ZM21.48 0L21.48 0Q23.67 0 25.22 0.76L25.22 0.76L25.22 4.35L25.20 4.37Q24.54 3.36 22.43 3.04L22.43 3.04Q21.81 2.93 20.86 2.93Q19.91 2.93 19.00 3.29Q18.08 3.64 17.50 4.30L17.50 4.30Q16.36 5.58 16.36 7.95L16.36 7.95Q16.36 10.70 17.80 12.05L17.80 12.05Q19.00 13.17 20.96 13.17L20.96 13.17Q23.19 13.17 24.57 12.22L24.57 12.22Q25.08 11.88 25.43 11.38L25.43 11.38L25.46 11.40L25.46 14.68Q23.67 16.17 20.64 16.17L20.64 16.17Q17.06 16.17 15.04 13.90L15.04 13.90Q13.09 11.73 13.09 8.16L13.09 8.16Q13.09 4.37 15.22 2.19L15.22 2.19Q17.38 0 21.48 0ZM37.30 9.73L37.30 0.23Q38.03 0.29 38.51 0.29L38.51 0.29L39.48 0.29Q39.97 0.29 40.51 0.20L40.51 0.20L40.51 9.89Q40.51 12.77 38.77 14.52L38.77 14.52Q37.11 16.17 34.62 16.17L34.62 16.17Q31.89 16.17 30.20 14.75L30.20 14.75Q28.31 13.16 28.31 10.16L28.31 10.16L28.31 0.23Q29.29 0.29 30.15 0.29Q31.01 0.29 31.57 0.20L31.57 0.20L31.57 10.31Q31.57 11.79 32.47 12.61L32.47 12.61Q33.32 13.36 34.58 13.36L34.58 13.36Q36.46 13.36 37.08 11.44L37.08 11.44Q37.30 10.75 37.30 9.73L37.30 9.73Z" transform="translate(65 18.415)"></path></svg>